# Blender v2.91.2 OBJ File: ''
# www.blender.org
mtllib ground_box.mtl
o Cube_Cube.001
v -22.580261 0.914816 22.580261
v -22.580261 0.914824 -22.580261
v -22.580261 -0.914816 -22.580261
v -22.580261 -0.914824 22.580261
v 22.580261 0.914824 -22.580261
v 22.580261 -0.914816 -22.580261
v 22.580261 0.914816 22.580261
v 22.580261 -0.914824 22.580261
vt 3.776997 -7.552429
vt 3.776997 -3.776023
vt 7.553401 -3.776023
vt 7.553401 -7.552429
vt 3.776997 0.000382
vt 7.553401 0.000382
vt 3.776997 3.776788
vt 7.553401 3.776788
vt 3.776997 7.553193
vt 7.553401 7.553193
vt 0.000590 0.000382
vt 0.000590 3.776788
vt 11.329807 3.776788
vt 11.329807 0.000382
vn -1.0000 0.0000 0.0000
vn 0.0000 0.0000 -1.0000
vn 1.0000 0.0000 0.0000
vn 0.0000 0.0000 1.0000
vn 0.0000 1.0000 0.0000
vn 0.0000 -1.0000 -0.0000
usemtl Material.001
s 1
f 1/1/1 2/2/1 3/3/1 4/4/1
f 2/2/2 5/5/2 6/6/2 3/3/2
f 5/5/3 7/7/3 8/8/3 6/6/3
f 7/7/4 1/9/4 4/10/4 8/8/4
f 2/11/5 1/12/5 7/7/5 5/5/5
f 6/6/6 8/8/6 4/13/6 3/14/6
